<?xml version="1.0" encoding="utf-8"?>
<!-- Generator: Adobe Illustrator 16.0.0, SVG Export Plug-In . SVG Version: 6.00 Build 0)  -->
<!DOCTYPE svg PUBLIC "-//W3C//DTD SVG 1.1//EN" "http://www.w3.org/Graphics/SVG/1.1/DTD/svg11.dtd">
<svg version="1.1" id="Guitarist" xmlns="http://www.w3.org/2000/svg" xmlns:xlink="http://www.w3.org/1999/xlink" x="0px" y="0px"
	 width="1568.79px" height="3061.42px" viewBox="0 0 1568.79 3061.42" enable-background="new 0 0 1568.79 3061.42"
	 xml:space="preserve">
<defs>
	<style>
		* {stroke-width: 4}
	</style>
</defs>
<path fill="none" stroke="#301F31" stroke-miterlimit="10" d="M1568.79,3061.42"/>
<path fill="none" stroke="#301F31" stroke-miterlimit="10" d="M1568.79,3061.42"/>
<path fill="none" stroke="#301F31" stroke-miterlimit="10" d="M-119.771,3061.42"/>
<polygon fill="#5F0C0B" stroke="#5F0C0B" points="532.529,963.955 487.53,864.959 510.03,792.963 "/>
<path fill="none" stroke="#EE3D24" stroke-miterlimit="10" d="M487.53,864.959"/>
<polygon fill="#431715" stroke="#431715" points="487.53,864.959 480.032,773.464 510.03,792.963 "/>
<polygon fill="#54202C" stroke="#54202C" points="487.53,864.959 487.53,902.458 450.033,798.963 480.032,773.464 "/>
<polygon fill="#3C131B" stroke="#3C131B" points="450.033,798.963 462.033,737.466 480.032,773.464 "/>
<polygon fill="#482738" stroke="#482738" points="462.033,737.466 564.027,675.969 480.032,773.464 "/>
<polygon fill="#39112B" stroke="#39112B" points="564.027,675.969 510.03,792.963 480.032,773.464 "/>
<polygon fill="#1B0B13" stroke="#1B0B13" points="564.027,675.969 438.034,717.967 438.034,768.214 462.033,737.466 "/>
<polygon fill="#5F0C0B" stroke="#5F0C0B" points="564.027,675.969 495.03,698.968 547.528,632.471 "/>
<polygon fill="#381E1D" stroke="#381E1D" points="564.027,675.969 610.525,665.72 547.528,632.471 "/>
<polygon fill="#260D13" stroke="#260D13" points="547.528,632.471 487.53,617.472 529.529,596.473 "/>
<polygon fill="#C18878" stroke="#C18878" points="529.529,596.473 501.03,561.975 631.524,614.472 "/>
<polygon fill="#54183E" stroke="#54183E" points="529.529,596.473 547.528,632.471 610.525,665.72 "/>
<polygon fill="#553327" stroke="#553327" points="529.529,596.473 631.524,654.22 631.524,614.472 "/>
<polygon fill="#35151B" stroke="#35151B" points="631.524,654.22 610.525,665.72 529.529,596.473 "/>
<polygon fill="#351314" stroke="#351314" points="510.03,792.963 564.027,831.961 526,914.329 "/>
<polygon fill="#7B1315" stroke="#7B1315" points="526,914.329 547.528,963.955 564.027,831.961 "/>
<polygon fill="#401211" stroke="#401211" points="549.421,948.816 566.277,936.956 564.027,831.961 "/>
<polygon fill="#2C0F0E" stroke="#2C0F0E" points="564.027,831.961 570.027,734.466 510.03,792.963 "/>
<polygon fill="#482738" stroke="#482738" points="570.027,734.466 564.027,675.969 510.03,792.963 "/>
<polygon fill="#2A0F0F" stroke="#2A0F0F" points="570.027,734.466 610.525,750.965 564.027,831.961 "/>
<polygon fill="#2A1420" stroke="#2A1420" points="569.63,589.688 711.021,578.475 631.127,615.936 "/>
<polygon fill="#2A110F" stroke="#2A110F" points="711.021,578.475 682.521,708.342 631.524,614.472 "/>
<polygon fill="#421F19" stroke="#421F19" points="610.525,665.72 631.524,654.22 631.524,614.472 682.521,708.342 "/>
<polygon fill="#694549" stroke="#694549" points="610.525,750.965 564.027,675.969 570.027,734.466 "/>
<polygon fill="#381E1D" stroke="#381E1D" points="610.525,665.72 610.525,750.965 564.027,675.969 "/>
<polygon fill="#351811" stroke="#351811" points="610.525,750.965 682.521,708.342 610.525,665.72 "/>
<polygon fill="#3E1D15" stroke="#3E1D15" points="682.521,708.342 785.521,654.22 711.021,578.475 "/>
<polygon fill="#4D2B18" stroke="#4D2B18" points="711.021,578.475 801.015,561.975 785.521,654.22 "/>
<polygon fill="#502E1B" stroke="#502E1B" points="682.521,708.342 741.019,724.716 785.521,654.22 "/>
<polygon fill="#A66A58" stroke="#A66A58" points="682.521,708.342 717.021,768.214 741.019,724.716 "/>
<path fill="none" stroke="#EE3D24" stroke-miterlimit="10" d="M717.021,768.214"/>
<path fill="none" stroke="#EE3D24" stroke-miterlimit="10" d="M734.021,792.963"/>
<polygon fill="#AC836C" stroke="#AC836C" points="729.02,831.961 734.021,792.963 716.842,819.391 "/>
<polygon fill="#FDDDC3" stroke="#FDDDC3" points="716.729,851.405 716.842,819.391 738.993,872.46 "/>
<polygon fill="#AC836C" stroke="#AC836C" points="716.842,819.391 738.993,872.46 729.02,831.961 "/>
<polygon fill="#8D6853" stroke="#8D6853" points="734.021,792.963 741.019,827.336 759.993,864.959 747.007,828.961 747.007,803.336 "/>
<polygon fill="#A27468" stroke="#A27468" points="734.021,792.963 741.019,724.716 717.021,768.214 "/>
<polygon fill="#F4CAB3" stroke="#F4CAB3" points="610.525,750.965 717.021,768.214 716.729,851.405 "/>
<polygon fill="#FDDCBE" stroke="#FDDCBE" points="738.993,872.46 759.993,864.959 741.019,827.336 734.021,792.963 729.02,831.961 "/>
<polygon fill="#FDDBC6" stroke="#FDDBC6" points="759.993,864.959 814.208,873.646 811.993,857.336 747.007,803.336 747.007,828.961 "/>
<polygon fill="#AC836C" stroke="#AC836C" points="716.842,819.391 717.021,768.214 734.021,792.963 "/>
<path fill="none" stroke="#EE3D24" stroke-miterlimit="10" d="M738.993,872.46"/>
<polygon fill="#825F4C" stroke="#825F4C" points="734.021,792.963 811.993,857.336 854.993,828.961 "/>
<polygon fill="#45271C" stroke="#45271C" points="741.019,724.716 763.993,773.464 785.521,654.22 "/>
<polygon fill="#38221D" stroke="#38221D" points="801.015,561.975 882.993,569.336 946.993,666.336 "/>
<polygon fill="#573D35" stroke="#573D35" points="801.015,561.975 835.993,550.336 882.993,569.336 "/>
<polygon fill="#452C2F" stroke="#452C2F" points="569.63,589.688 626.993,569.336 711.021,578.475 "/>
<polygon fill="#3E1D15" stroke="#3E1D15" points="711.021,578.475 665.194,573.491 760.865,569.336 "/>
<polygon fill="#26110B" stroke="#26110B" points="785.521,654.22 946.993,666.336 801.015,561.975 "/>
<polygon fill="#856E6A" stroke="#856E6A" points="916.444,619.714 967.555,664.433 982.993,713.842 "/>
<polygon fill="#1F0D0B" stroke="#1F0D0B" points="946.993,666.336 854.993,703.336 785.521,653.686 "/>
<polygon fill="#502E1B" stroke="#502E1B" points="854.993,703.336 763.993,773.464 785.521,654.22 "/>
<polygon fill="#794F43" stroke="#794F43" points="734.021,792.963 763.993,773.464 741.019,724.716 "/>
<polygon fill="#8D6853" stroke="#8D6853" points="763.993,773.464 854.993,828.961 734.021,792.963 "/>
<polygon fill="#A1725C" stroke="#A1725C" points="854.993,828.961 869.993,793.713 812.976,803.336 "/>
<polygon fill="#8D6853" stroke="#8D6853" points="811.993,857.336 814.208,873.646 854.993,828.961 "/>
<polygon fill="#B99582" stroke="#B99582" points="812.976,803.336 812.976,773.464 763.993,773.464 "/>
<polygon fill="#35180F" stroke="#35180F" points="812.976,773.464 869.993,793.713 812.976,803.336 "/>
<polygon fill="#472617" stroke="#472617" points="812.976,773.464 854.993,703.336 763.993,773.464 "/>
<polygon fill="#1F0D0B" stroke="#1F0D0B" points="812.976,773.464 946.993,666.336 854.993,703.336 "/>
<polygon fill="#392115" stroke="#392115" points="869.993,793.713 946.993,666.336 812.976,773.464 "/>
<polygon fill="#844948" stroke="#844948" points="869.993,793.713 895.993,773.464 905.808,734.466 "/>
<polygon fill="#4D2B1F" stroke="#4D2B1F" points="946.993,666.336 920.993,778.336 903.429,738.4 "/>
<polygon fill="#794E45" stroke="#794E45" points="895.993,773.464 920.993,778.336 903.429,738.4 "/>
<polygon fill="#53321F" stroke="#53321F" points="920.993,778.336 939.993,803.336 946.993,666.336 "/>
<path fill="none" stroke="#EE3D24" stroke-miterlimit="10" d="M982.993,713.842"/>
<polygon fill="#472A2F" stroke="#472A2F" points="939.993,803.336 982.993,713.842 946.993,666.336 "/>
<polygon fill="#3E1B19" stroke="#3E1B19" points="939.993,803.336 949.87,864.959 992.993,823.336 954.347,773.464 "/>
<path fill="none" stroke="#EE3D24" stroke-miterlimit="10" d="M973.67,963.955"/>
<path fill="none" stroke="#EE3D24" stroke-miterlimit="10" d="M949.87,914.329"/>
<path fill="none" stroke="#EE3D24" stroke-miterlimit="10" d="M1002.993,971.336"/>
<polygon fill="#53321F" stroke="#53321F" points="992.993,823.336 949.87,864.959 949.87,914.329 "/>
<polygon fill="#82685D" stroke="#82685D" points="992.993,823.336 954.347,773.464 982.993,713.842 "/>
<polygon fill="none" points="982.993,713.842 998.326,758.368 992.993,823.336 "/>
<polygon fill="#C49488" stroke="#C49488" points="521.788,570.325 529.132,547.802 569.63,589.688 "/>
<polygon fill="#8D8082" stroke="#8D8082" points="982.993,713.842 1002.993,768.589 992.993,823.336 "/>
<polygon fill="#68100D" stroke="#68100D" points="549.421,948.816 577.66,979.669 566.277,936.956 "/>
<polygon fill="#AA6156" stroke="#AA6156" points="566.277,936.956 597.026,929.454 564.027,831.961 "/>
<polygon fill="#D6938B" stroke="#D6938B" points="564.027,831.961 610.525,750.965 594.896,923.162 "/>
<polygon fill="#F5BAAD" stroke="#F5BAAD" points="663.208,872.46 738.993,872.46 610.525,750.965 "/>
<polygon fill="#C58B81" stroke="#C58B81" points="610.525,750.965 682.521,708.342 717.021,768.214 "/>
<polygon fill="#4F1611" stroke="#4F1611" points="590.585,965.037 610.525,960.576 604.302,960.296 "/>
<polygon fill="#AA6156" stroke="#AA6156" points="610.491,949.162 597.026,929.454 565.66,936.956 "/>
<path fill="none" stroke="#C92827" stroke-miterlimit="10" d="M598.337,929.454"/>
<polygon fill="#997466" stroke="#997466" points="597.026,929.454 640.524,929.454 634.698,897.958 "/>
<polygon fill="#C58B81" stroke="#C58B81" points="597.026,929.454 665.194,872.46 610.525,750.965 "/>
<polygon fill="#FBCEB4" stroke="#FBCEB4" points="854.993,828.961 905.808,1055.449 763.271,929.454 "/>
<polygon fill="#35180F" stroke="#35180F" points="665.194,897.336 665.194,929.454 640.524,929.454 "/>
<polygon fill="#1F0D0B" stroke="#1F0D0B" points="665.194,897.336 713.841,889.505 665.194,929.454 "/>
<polygon fill="#EAAFA5" stroke="#EAAFA5" points="708.995,923.162 763.271,929.454 687.513,929.454 "/>
<polygon fill="#FBCFB8" stroke="#FBCFB8" points="708.995,923.162 713.841,889.505 738.993,872.46 759.993,864.959 814.208,873.646 763.271,929.454
	"/>
<polygon fill="none" points="665.194,881.052 665.194,897.336 708.819,892.301 729.02,881.052 "/>
<polygon fill="#D5988D" stroke="#D5988D" points="854.993,828.961 895.993,778.336 875.493,803.648 875.493,850.929 861.583,858.336 "/>
<line fill="none" stroke="#C92827" stroke-miterlimit="10" x1="895.993" y1="889.645" x2="908.493" y2="868.833"/>
<path fill="none" stroke="#C92827" stroke-miterlimit="10" d="M875.493,850.929"/>
<path fill="none" stroke="#C92827" stroke-miterlimit="10" d="M925.212,788.4"/>
<path fill="none" stroke="#C92827" stroke-miterlimit="10" d="M875.493,850.929"/>
<path fill="none" stroke="#C92827" stroke-miterlimit="10" d="M908.493,868.833"/>
<polygon fill="#EF9B90" stroke="#EF9B90" points="861.583,858.336 875.493,850.929 895.993,889.645 881.884,948.816 "/>
<polygon fill="#AB3E2E" stroke="#AB3E2E" points="875.493,850.929 891.375,830.955 908.493,868.833 "/>
<polygon fill="#8A1E1C" stroke="#8A1E1C" points="875.493,850.929 895.993,889.645 908.493,868.833 "/>
<polyline fill="#E36060" stroke="#E36060" points="875.493,803.648 895.993,778.336 920.993,778.336 924.603,789.165 875.493,850.929 "/>
<polygon fill="#D5988D" stroke="#D5988D" points="891.993,831.961 924.603,789.165 875.493,803.648 "/>
<polygon fill="#F7AAA1" stroke="#F7AAA1" points="924.603,789.165 949.87,864.959 908.493,868.833 "/>
<polygon fill="#E27880" stroke="#E27880" points="895.993,889.645 949.87,864.959 908.493,868.833 "/>
<polygon fill="#D88A80" stroke="#D88A80" points="881.884,948.816 949.87,864.959 895.993,889.645 "/>
<polygon fill="#FBCDB8" stroke="#FBCDB8" points="905.808,1055.449 908.493,1082.448 933.993,1082.448 919.9,1169.444 1044.004,1028.45
	900.353,971.336 881.884,948.816 "/>
<polygon fill="none" stroke="#C92827" stroke-miterlimit="10" points="663.772,969.954 680.148,1017.952 691.107,979.669 "/>
<polygon fill="#E2958F" stroke="#E2958F" points="610.525,1002.952 618.775,1046.45 652.859,1011.952 "/>
<polygon fill="#D2938A" stroke="#D2938A" points="610.525,1002.952 663.772,969.954 680.148,1017.952 652.859,1011.952 "/>
<polygon fill="#A04140" stroke="#A04140" points="618.775,1046.45 640.524,1046.45 652.859,1011.952 "/>
<polygon fill="#5B0C0C" stroke="#5B0C0C" points="640.524,1046.45 680.148,1017.952 652.859,1011.952 "/>
<polygon fill="#E7A889" stroke="#E7A889" points="663.772,969.954 763.271,929.454 905.808,1055.449 908.493,1082.448 879.984,1082.448
	854.993,1113.946 691.107,979.669 "/>
<polygon fill="#D3978D" stroke="#D3978D" points="640.524,1046.45 646.523,1059.13 652.226,1078.476 680.148,1017.952 "/>
<polygon fill="#741113" stroke="#741113" points="725.521,1065.949 680.148,1100.448 660.337,1082.448 "/>
<polygon fill="#A76364" stroke="#A76364" points="680.148,1100.448 691.107,1122.946 725.521,1065.949 "/>
<polygon fill="#D8736E" stroke="#D8736E" points="691.107,1122.946 744.507,1198.336 771.993,1160.641 "/>
<polygon fill="#D78C80" stroke="#D78C80" points="725.521,1065.949 771.993,1160.641 691.107,1122.946 "/>
<polygon fill="#BD9188" stroke="#BD9188" points="725.521,1065.949 691.107,979.669 680.148,1017.952 652.226,1078.476 663.772,1065.949 "/>
<polygon fill="#D6A38E" stroke="#D6A38E" points="771.993,1160.641 854.993,1113.946 691.107,979.669 725.521,1065.949 "/>
<polygon fill="#804C3F" stroke="#804C3F" points="744.507,1198.336 854.993,1113.946 771.993,1160.641 "/>
<polygon fill="#4E150F" stroke="#4E150F" points="744.507,1198.336 779.991,1208.336 846.993,1175.336 "/>
<polygon fill="#3A1B19" stroke="#3A1B19" points="744.507,1198.336 854.993,1113.946 846.993,1175.336 "/>
<polygon fill="#9EB2DB" stroke="#9EB2DB" points="1044.004,1028.45 1078.993,1024.701 1115.993,1073.449 1071.993,1090.698 "/>
<path fill="none" stroke="#C92827" stroke-miterlimit="10" d="M235.544,329.65"/>
<polygon fill="#8F5438" stroke="#8F5438" points="854.993,1113.946 879.984,1082.448 933.993,1082.448 "/>
<polygon fill="#FBCDB8" stroke="#FBCDB8" points="927.648,1160.641 903.429,1208.336 908.493,1128.945 928.891,1113.946 "/>
<polygon fill="#8F5438" stroke="#8F5438" points="933.993,1082.448 928.891,1113.946 908.493,1128.945 "/>
<polygon fill="#8F5438" stroke="#8F5438" points="854.993,1113.946 887.9,1123.172 901.481,1082.448 "/>
<polygon fill="#B5742A" stroke="#B5742A" points="846.993,1175.336 842.005,1208.336 869.993,1220.44 887.9,1123.172 854.993,1113.946 "/>
<polygon fill="#3B1217" stroke="#3B1217" points="869.993,1220.44 841.484,1400.432 866.257,1369.282 903.429,1208.336 908.493,1128.945
	887.9,1123.172 "/>
<polygon fill="#D2822C" stroke="#D2822C" points="842.005,1208.336 813.015,1392.932 841.484,1400.432 869.993,1220.44 "/>
<polygon fill="#E4A3A9" stroke="#E4A3A9" points="813.015,1392.932 786.132,1433.43 827.858,1298.413 "/>
<polygon fill="#E4A3A9" stroke="#E4A3A9" points="786.132,1433.43 773.05,1421.431 836.122,1245.8 827.858,1298.413 "/>
<polyline fill="#792115" stroke="#792115" points="687.733,1938.903 717.021,1938.903 762.019,1841.408 826.921,1472.427 778.773,1426.68 "/>
<polygon fill="#6D1910" stroke="#6D1910" points="826.921,1472.427 786.132,1433.815 813.015,1392.932 841.484,1400.432 "/>
<polygon fill="#AD634A" stroke="#AD634A" points="717.021,1938.903 744.507,1929.901 762.019,1841.408 "/>
<polygon fill="#FCDFD6" stroke="#FCDFD6" points="843.517,1198.336 826.921,1198.336 826.921,1208.336 841.484,1211.65 "/>
<polygon fill="#E1B1A7" stroke="#E1B1A7" points="837.983,1233.938 826.921,1233.938 820.515,1245.8 836.122,1245.8 "/>
<polygon fill="#5C130B" stroke="#5C130B" points="846.993,1175.336 826.921,1198.336 843.517,1198.336 "/>
<polygon fill="#9BB0DA" stroke="#9BB0DA" points="903.429,1208.336 1002.993,1239.869 1071.993,1090.698 1044.004,1028.45 "/>
<polygon fill="#421E16" stroke="#421E16" points="1002.993,1239.869 925.212,1326.185 953.694,1224.255 "/>
<polygon fill="#33120E" stroke="#33120E" points="903.429,1208.336 895.993,1299.937 953.694,1224.255 "/>
<polygon fill="#594164" stroke="#594164" points="866.257,1369.282 925.212,1326.185 953.694,1224.255 895.993,1299.937 "/>
<polyline fill="#805F55" stroke="#805F55" points="878.788,1779.911 775.987,1761.995 788.484,1690.945 925.212,1326.185 1002.993,1239.869
	1071.993,1090.698 1115.993,1073.449 1132.499,1080.949 1062.003,1175.336 "/>
<polyline fill="#A5BBE1" stroke="#A5BBE1" points="1132.499,1080.949 1151.999,1065.949 1229.995,1065.949 1337.989,1149.943 "/>
<polygon fill="#7A92CA" stroke="#7A92CA" points="1337.989,1149.943 1382.987,1222.829 1400.986,1296.056 1262.104,1122.946 "/>
<polygon fill="#849BCF" stroke="#849BCF" points="1062.003,1175.336 1262.104,1122.946 1132.499,1080.949 "/>
<polygon fill="#4E447E" stroke="#4E447E" points="954.347,1507.881 1044.004,1446.928 1062.003,1175.336 "/>
<polygon fill="#443B72" stroke="#443B72" points="1044.004,1446.928 1115.993,1421.431 1099.642,1165.481 1062.003,1175.336 "/>
<polygon fill="#301F31" stroke="#301F31" points="1099.642,1165.481 1145.999,1374.933 1145.999,1472.427 1169.997,1548.923 1079.999,1574.422
	1115.993,1421.431 "/>
<polygon fill="#8B9ED0" stroke="#8B9ED0" points="1400.986,1296.056 1453.483,1446.928 1478.981,1593.921 1478.981,1673.417 1343.989,1587.921
	1291.491,1280.437 1176.009,1145.487 1262.104,1122.946 "/>
<polygon fill="#39305D" stroke="#39305D" points="1099.642,1165.481 1145.999,1374.933 1176.009,1145.487 "/>
<polygon fill="#2B1A3D" stroke="#2B1A3D" points="1145.999,1374.933 1207.004,1502.917 1222.495,1341.608 1176.009,1145.487 "/>
<polygon fill="#3B3F7F" stroke="#3B3F7F" points="1222.495,1341.608 1343.989,1587.921 1291.491,1280.437 "/>
<polygon fill="#5D75B8" stroke="#5D75B8" points="1222.495,1341.608 1291.491,1280.437 1176.009,1145.487 "/>
<polygon fill="#30346E" stroke="#30346E" points="1207.004,1502.917 1222.495,1341.608 1343.989,1587.921 1291.491,1680.167 "/>
<polygon fill="#313165" stroke="#313165" points="1169.997,1548.923 1233.749,1748.413 1291.491,1680.167 1145.999,1374.933 1145.999,1472.427 "/>
<polygon fill="#7E7BB3" stroke="#7E7BB3" points="1044.004,1446.928 1035.005,1709.414 1090.502,1659.917 1079.999,1574.422 1115.993,1421.431 "/>
<polygon fill="#544A83" stroke="#544A83" points="878.788,1779.911 1034.938,1709.414 1044.004,1446.928 954.347,1507.881 "/>
<polygon fill="#301F4C" stroke="#301F4C" points="1169.997,1548.923 1079.999,1574.422 1090.502,1659.917 "/>
<polygon fill="#A39499" stroke="#A39499" points="878.788,1779.911 834.539,1926.904 755.794,1872.861 775.987,1761.995 "/>
<polygon fill="#331213" stroke="#331213" points="834.539,1926.904 1035.005,1709.414 878.788,1779.911 "/>
<polygon fill="#2D110C" stroke="#2D110C" points="834.539,1926.904 874.989,1944.903 905.808,1849.583 "/>
<polygon fill="#37336E" stroke="#37336E" points="1090.502,1659.917 1044.004,1890.156 874.989,1944.903 905.808,1849.583 1035.005,1709.414 "/>
<polygon fill="#8098CD" stroke="#8098CD" points="1169.997,1548.923 1044.004,1890.156 1090.502,1659.917 "/>
<polygon fill="#595991" stroke="#595991" points="1169.997,1548.923 1203.222,1652.887 1044.004,1890.156 "/>
<polygon fill="#1C0D0F" stroke="#1C0D0F" points="1343.989,1587.921 1319.274,1728.506 1233.749,1748.413 1291.491,1680.167 "/>
<polygon fill="#423D6F" stroke="#423D6F" points="1190.997,1818.159 1298.991,1818.159 1306.367,1879.327 1288.87,1926.904 1288.87,2019.899
	1317.405,1993.573 1322.786,1914.904 1328.68,1812.027 1262.104,1761.995 1252.493,1779.911 1207.495,1791.243 "/>
<polygon fill="#312549" stroke="#312549" points="1262.104,1761.995 1319.274,1728.506 1233.749,1748.413 1207.495,1791.243 1252.493,1779.911 "/>
<polygon fill="#2A3A71" stroke="#2A3A71" points="1478.981,1673.417 1516.48,1809.91 1331.546,1761.995 "/>
<polygon fill="#6A78B9" stroke="#6A78B9" points="1331.546,1761.995 1343.989,1587.921 1478.981,1673.417 "/>
<polygon fill="#9CB0DA" stroke="#9CB0DA" points="1331.546,1761.995 1328.68,1812.027 1262.104,1761.995 1334.581,1719.539 "/>
<polygon fill="#2A3A71" stroke="#2A3A71" points="1334.581,1719.539 1319.274,1728.506 1343.989,1587.921 "/>
<polygon fill="#181127" stroke="#181127" points="1516.48,1809.91 1317.405,1993.573 1331.546,1761.995 "/>
<line fill="#2A2039" stroke="#2A2039" x1="1288.87" y1="2019.899" x2="1516.48" y2="1809.908"/>
<polyline fill="#2A2039" stroke="#2A2039" points="1516.48,1809.908 1499.818,1904.403 1288.87,2019.899 "/>
<polygon fill="#160B13" stroke="#160B13" points="1499.981,1904.404 1405.265,2007.899 1288.87,2019.899 "/>
<polygon fill="#15090A" stroke="#15090A" points="1288.87,2019.899 1283.242,2057.396 1318.49,2084.396 1405.265,2007.899 "/>
<polygon fill="#0F0609" stroke="#0F0609" points="1424.013,1987.413 1430.984,2084.396 1354.488,2126.394 1291.491,2099.395 1318.49,2084.396 "/>
<polygon fill="#BB8978" stroke="#BB8978" points="1306.367,1879.327 1234.966,1905.657 1244.994,1829.407 1190.997,1818.159 1298.991,1818.159 "/>
<polygon fill="#F9FAE6" stroke="#F9FAE6" points="1234.966,1905.657 895.993,2019.899 752.181,1974.9 680.789,1988.32 717.021,1938.903
	744.507,1929.901 755.794,1872.861 834.539,1926.904 874.989,1944.903 1044.004,1890.156 1190.997,1818.159 1244.994,1829.407 "/>
<path fill="none" stroke="#EE4523" stroke-miterlimit="10" d="M717.021,1938.903"/>
<path fill="none" stroke="#EE4523" stroke-miterlimit="10" d="M677.44,1938.903"/>
<polygon fill="#673531" stroke="#673531" points="616.525,2000.399 666.772,2019.899 752.181,1974.9 "/>
<polygon fill="#FCDDD2" stroke="#FCDDD2" points="616.525,1963.158 640.524,1926.904 645.023,1892.903 688.603,1878.491 677.44,1938.903 "/>
<polygon fill="#D2A5A8" stroke="#D2A5A8" points="616.525,2000.399 616.525,2028.897 647.78,2050.623 699.021,2039.397 739.52,2048.98
	762.019,2023.273 717.021,2023.273 775.987,1982.35 752.181,1974.9 666.772,2019.899 "/>
<polygon fill="#D1ACAB" stroke="#D1ACAB" points="616.525,2028.897 616.525,2061.896 636.024,2084.396 687.733,2078.396 "/>
<polygon fill="#EDBABE" stroke="#EDBABE" points="647.78,2050.623 699.021,2039.397 739.52,2048.98 687.733,2078.396 "/>
<polygon fill="#BA848A" stroke="#BA848A" points="739.52,2048.98 731.55,2112.894 687.733,2078.396 "/>
<polygon fill="#BC827F" stroke="#BC827F" points="616.525,2061.896 586.526,2061.896 586.526,2100.895 636.024,2126.394 731.55,2112.894
	687.733,2078.396 636.024,2084.396 "/>
<polygon fill="#997071" stroke="#997071" points="731.55,2112.894 739.52,2048.98 762.019,2023.273 910.302,2078.396 "/>
<polygon fill="#FDF0E9" stroke="#FDF0E9" points="717.021,2023.273 775.987,1982.35 762.019,2023.273 "/>
<polygon fill="#FDDBC1" stroke="#FDDBC1" points="762.019,2023.273 895.993,2019.899 775.987,1982.35 "/>
<polygon fill="#BB8978" stroke="#BB8978" points="895.993,2019.899 910.302,2078.396 762.019,2023.273 "/>
<polygon fill="#B98E85" stroke="#B98E85" points="1079.896,1957.92 895.993,2019.899 910.302,2078.396 "/>
<polyline fill="#5D2D4C" stroke="#5D2D4C" points="837.983,1233.938 841.484,1211.65 826.921,1208.336 771.993,1316.435 794.13,1362.73
	836.122,1245.8 820.515,1245.8 826.921,1233.938 "/>
<polygon fill="#743962" stroke="#743962" points="771.993,1316.435 671.272,1406.43 704.673,1791.508 773.05,1421.431 794.13,1362.73 "/>
<polygon fill="#C96728" stroke="#C96728" points="671.272,1406.43 537.028,1897.243 635.817,1680.167 "/>
<polygon fill="#8A4B6E" stroke="#8A4B6E" points="635.817,1680.167 704.673,1791.508 671.272,1406.43 "/>
<polygon fill="#62160E" stroke="#62160E" points="635.817,1680.167 704.673,1791.508 688.603,1878.491 "/>
<polygon fill="#8A4B6E" stroke="#8A4B6E" points="537.028,1897.243 688.603,1878.491 635.817,1680.167 "/>
<polygon fill="#BA848A" stroke="#BA848A" points="636.024,2126.394 785.521,2163.42 731.55,2112.894 "/>
<polygon fill="#2A1017" stroke="#2A1017" points="773.05,2112.894 910.302,2078.396 731.55,2112.894 "/>
<polygon fill="#180A0C" stroke="#180A0C" points="910.302,2078.396 1318.49,2084.396 1283.242,2057.396 1288.87,2019.899 "/>
<polygon fill="#263F8C" stroke="#263F8C" points="1430.984,2084.396 1385.987,2543.001 1354.488,2126.394 "/>
<polygon fill="#28539F" stroke="#28539F" points="1291.491,2099.395 1385.987,2543.001 1354.488,2126.394 "/>
<polygon fill="#273370" stroke="#273370" points="1385.987,2543.37 1207.495,2430.876 1327.495,2266.27 "/>
<polygon fill="#4F80C1" stroke="#4F80C1" points="1207.495,2430.876 1099.642,2289.885 1327.495,2266.27 "/>
<polygon fill="#15112C" stroke="#15112C" points="1291.491,2099.395 1099.642,2289.885 1327.495,2266.27 "/>
<polygon fill="#151123" stroke="#151123" points="1318.49,2084.396 1291.491,2099.395 1146.787,2243.073 1107.001,2178.89 1275.743,2083.768 "/>
<polygon fill="#251E30" stroke="#251E30" points="1107.001,2178.89 1026.005,2126.394 1275.743,2083.768 "/>
<polygon fill="none" stroke="#EE4523" stroke-miterlimit="10" points="1026.005,2126.394 884.19,2138.392 910.302,2078.396 "/>
<polygon fill="#1E1D44" stroke="#1E1D44" points="1026.005,2126.394 1275.743,2083.768 910.302,2078.396 "/>
<polygon fill="#1B0D0B" stroke="#1B0D0B" points="884.19,2138.392 785.521,2163.42 910.302,2078.396 "/>
<polygon fill="#1E1D44" stroke="#1E1D44" points="785.521,2163.42 773.05,2112.894 910.302,2078.396 "/>
<polygon fill="#574472" stroke="#574472" points="537.028,1897.243 477.032,2078.396 571.527,2138.156 "/>
<polygon fill="#593360" stroke="#593360" points="537.028,1897.243 688.603,1878.491 541.276,1926.904 "/>
<polygon fill="#613C68" stroke="#613C68" points="541.276,1926.904 645.023,1892.903 640.524,1926.904 "/>
<polygon fill="#4F2347" stroke="#4F2347" points="640.524,1926.904 616.525,1963.158 541.276,1926.904 "/>
<polygon fill="#452337" stroke="#452337" points="616.525,1963.158 616.525,2061.896 541.276,1926.904 "/>
<polygon fill="#44253C" stroke="#44253C" points="616.525,2061.896 560.606,2061.896 541.276,1926.904 "/>
<polygon fill="#4D437E" stroke="#4D437E" points="586.526,2061.896 586.526,2100.895 571.527,2138.156 560.606,2061.896 "/>
<polygon fill="#6F514D" stroke="#6F514D" points="636.024,2126.394 593.149,2348.572 604.15,2341.28 652.13,2126.394 "/>
<polygon fill="#925623" stroke="#925623" points="704.081,2116.775 666.772,2310.883 604.15,2341.28 652.13,2126.394 "/>
<polygon fill="#1E100B" stroke="#1E100B" points="753.397,2194.341 690.678,2186.514 667.421,2302.758 "/>
<polygon fill="#806C6B" stroke="#806C6B" points="690.678,2186.514 704.081,2116.775 762.019,2163.42 "/>
<polygon fill="#A4AAA8" stroke="#A4AAA8" points="762.019,2163.42 753.397,2194.341 690.678,2186.514 "/>
<polygon fill="#C8C1C1" stroke="#C8C1C1" points="731.55,2112.894 785.521,2163.42 762.019,2163.42 704.081,2116.775 "/>
<polygon fill="#263A7D" stroke="#263A7D" points="718.813,2318.383 817.291,2243.073 762.019,2163.42 "/>
<polygon fill="#0B0C16" stroke="#0B0C16" points="817.291,2243.073 884.19,2138.392 785.521,2163.42 "/>
<polygon fill="#5E83C2" stroke="#5E83C2" points="785.521,2163.42 762.019,2163.42 817.291,2243.073 "/>
<polygon fill="#85A0D2" stroke="#85A0D2" points="817.291,2243.073 1026.005,2126.394 884.19,2138.392 "/>
<polygon fill="#7090C9" stroke="#7090C9" points="817.291,2243.073 1107.001,2178.89 1026.005,2126.394 "/>
<polygon fill="#6B8CC7" stroke="#6B8CC7" points="1107.001,2178.89 1099.642,2289.885 1146.787,2243.073 "/>
<polygon fill="#88ADDB" stroke="#88ADDB" points="817.291,2243.073 1099.642,2289.885 1107.001,2178.89 "/>
<polygon fill="#405BA8" stroke="#405BA8" points="817.291,2243.073 718.813,2318.383 1099.642,2289.885 "/>
<polygon fill="#3F63AD" stroke="#3F63AD" points="718.813,2318.383 685.202,2404.82 1099.642,2289.885 "/>
<polygon fill="#2D5097" stroke="#2D5097" points="685.202,2404.82 829.007,2404.82 1099.642,2289.885 "/>
<polygon fill="#D7A77F" stroke="#D7A77F" points="593.149,2348.572 560.606,2477.373 537.813,2627.258 578.901,2449.631 "/>
<polygon fill="#837E72" stroke="#837E72" points="593.149,2348.572 690.678,2355.879 647.544,2312.516 "/>
<polygon fill="#1F1419" stroke="#1F1419" points="690.678,2355.879 718.813,2318.383 667.421,2302.758 647.544,2312.516 "/>
<polygon fill="#0D0910" stroke="#0D0910" points="690.678,2355.879 685.202,2404.82 718.813,2318.383 "/>
<polygon fill="#110A13" stroke="#110A13" points="744.507,2404.82 638.55,2524.796 685.202,2404.82 "/>
<polygon fill="#1D0F08" stroke="#1D0F08" points="593.149,2348.572 578.901,2449.631 690.678,2355.879 "/>
<polygon fill="#341813" stroke="#341813" points="718.813,2318.383 578.901,2449.631 638.55,2524.796 "/>
<polygon fill="#341813" stroke="#341813" points="578.901,2449.631 537.813,2627.258 541.276,2634.865 638.55,2524.796 "/>
<polygon fill="#17212D" stroke="#17212D" points="541.276,2634.865 477.032,2732.36 862.513,2747.359 "/>
<polygon fill="#2F244F" stroke="#2F244F" points="571.527,2138.156 636.024,2126.394 586.526,2100.895 "/>
<polygon fill="none" stroke="#EE4523" stroke-miterlimit="10" points="571.527,2138.156 547.528,2194.64 622.64,2195.754 "/>
<polygon fill="#352959" stroke="#352959" points="622.64,2195.754 636.024,2126.394 571.527,2138.156 "/>
<polygon fill="#1F1127" stroke="#1F1127" points="547.528,2194.64 603.776,2293.506 622.64,2195.754 "/>
<polygon fill="#5055A4" stroke="#5055A4" points="477.032,2078.396 427.534,2084.396 547.528,2194.64 "/>
<polygon fill="#9CC3E7" stroke="#9CC3E7" points="547.528,2194.64 571.527,2138.156 477.032,2078.396 "/>
<polygon fill="#403350" stroke="#403350" points="427.534,2084.396 414.035,2136.518 467.275,2120.908 "/>
<polygon fill="#260E0D" stroke="#260E0D" points="414.035,2136.518 440.655,2184.733 467.275,2120.908 "/>
<polygon fill="#515155" stroke="#515155" points="440.655,2184.733 414.035,2259.51 524.28,2237.482 "/>
<polygon fill="#311C23" stroke="#311C23" points="440.655,2184.733 547.528,2194.64 467.275,2120.908 "/>
<polygon fill="#281519" stroke="#281519" points="547.528,2194.64 603.776,2293.506 524.28,2237.482 "/>
<polygon fill="#251518" stroke="#251518" points="524.28,2237.482 547.528,2194.64 440.655,2184.733 "/>
<polygon fill="#706D76" stroke="#706D76" points="414.035,2259.51 375.037,2348.572 524.28,2237.482 "/>
<polygon fill="none" stroke="#EE4523" stroke-miterlimit="10" points="524.28,2237.482 477.032,2385.878 427.534,2355.879 "/>
<polygon fill="#696879" stroke="#696879" points="375.037,2348.572 427.534,2355.879 524.28,2237.482 "/>
<polygon fill="#FFFBF6" stroke="#FFFBF6" points="375.037,2348.572 306.041,2543.37 477.032,2385.878 427.534,2355.879 "/>
<polygon fill="none" points="306.041,2543.37 391.536,2603.366 477.032,2385.878 306.041,2543.37 "/>
<polygon fill="#23141B" stroke="#23141B" points="477.032,2385.878 514.53,2436.875 603.776,2293.506 524.28,2237.482 "/>
<polygon fill="#B77364" stroke="#B77364" points="391.536,2603.366 477.032,2385.878 514.53,2436.875 "/>
<polygon fill="#7E352E" stroke="#7E352E" points="391.536,2603.366 440.655,2537.371 435.034,2615.366 "/>
<polygon fill="#8C4738" stroke="#8C4738" points="435.034,2615.366 391.536,2720.36 391.536,2603.366 "/>
<polygon fill="#6E2C22" stroke="#6E2C22" points="391.536,2603.366 366.373,2609.497 361.538,2697.861 "/>
<polygon fill="#A66E5C" stroke="#A66E5C" points="366.373,2609.497 368.426,2587.148 391.536,2603.366 "/>
<polygon fill="#8C3E3A" stroke="#8C3E3A" points="391.536,2603.366 391.536,2720.36 361.538,2697.861 "/>
<polygon fill="#F5E7DE" stroke="#F5E7DE" points="306.041,2543.37 243.044,2642.364 368.426,2587.148 "/>
<polygon fill="#FCF8F7" stroke="#FCF8F7" points="243.044,2642.364 286.542,2720.36 293.607,2620.369 "/>
<polygon fill="#D3A3AF" stroke="#D3A3AF" points="293.607,2620.369 291.662,2647.896 315.04,2635.491 "/>
<polygon fill="none" stroke="#EE4523" stroke-miterlimit="10" points="315.04,2635.491 315.04,2711.36 336.039,2679.862 "/>
<polygon fill="#D3A3AF" stroke="#D3A3AF" points="315.04,2635.491 368.426,2587.148 293.607,2620.369 "/>
<polygon fill="#F9F8F3" stroke="#F9F8F3" points="315.04,2711.36 315.04,2729.359 325.54,2741.359 361.538,2697.861 336.039,2679.862 "/>
<polygon fill="#F8EAE5" stroke="#F8EAE5" points="336.039,2679.862 368.426,2587.148 315.04,2635.491 "/>
<polygon fill="#FADCD9" stroke="#FADCD9" points="336.039,2679.862 361.538,2697.861 368.426,2587.148 "/>
<polygon fill="#FDF3F3" stroke="#FDF3F3" points="243.044,2642.364 258.043,2765.358 286.542,2720.36 "/>
<polygon fill="#D2B1B8" stroke="#D2B1B8" points="258.043,2765.358 325.54,2747.359 286.542,2720.36 "/>
<polygon fill="#7E352E" stroke="#7E352E" points="286.542,2720.36 315.04,2711.36 315.04,2635.491 286.542,2650.613 "/>
<polygon fill="none" stroke="#EE4523" stroke-miterlimit="10" points="315.04,2711.36 315.04,2740.09 286.542,2720.36 "/>
<polygon fill="#FCE3E2" stroke="#FCE3E2" points="325.54,2741.359 315.04,2725.725 315.04,2711.36 286.542,2720.36 325.54,2747.359 "/>
<polygon fill="#DEB2BD" stroke="#DEB2BD" points="258.043,2765.358 291.792,2903.356 315.04,2849.359 "/>
<polygon fill="#C89196" stroke="#C89196" points="315.04,2849.359 293.607,2755.875 258.043,2765.358 "/>
<polygon fill="#441A1D" stroke="#441A1D" points="291.792,2903.356 315.04,2892.856 315.04,2849.359 "/>
<polygon fill="#7E3D2C" stroke="#7E3D2C" points="315.04,2892.856 336.039,2755.875 315.04,2849.359 "/>
<polygon fill="none" stroke="#ED3624" stroke-miterlimit="10" points="336.039,2755.875 293.607,2755.875 314.823,2793.861 "/>
<polygon fill="#FFF7F0" stroke="#FFF7F0" points="293.607,2755.875 315.04,2849.359 336.039,2755.875 314.823,2793.861 "/>
<polygon fill="#B13C39" stroke="#B13C39" points="326.772,2816.319 330.573,2865.857 361.538,2834.357 "/>
<polygon fill="#250D0E" stroke="#250D0E" points="330.573,2865.857 351.788,2876.357 361.538,2849.359 361.538,2834.357 "/>
<polygon fill="#863A32" stroke="#863A32" points="361.538,2834.357 367.538,2774.868 326.772,2816.319 "/>
<polygon fill="#7E3D2C" stroke="#7E3D2C" points="326.772,2816.319 324.466,2807.396 336.039,2755.875 367.538,2774.868 "/>
<polygon fill="#8B463F" stroke="#8B463F" points="367.538,2774.868 376.537,2740.09 336.039,2755.875 "/>
<polygon fill="#180B0B" stroke="#180B0B" points="361.538,2697.861 391.536,2720.36 325.54,2747.359 "/>
<polygon fill="#DD9B9D" stroke="#DD9B9D" points="361.538,2697.861 356.288,2725.725 330.827,2740.09 "/>
<polygon fill="#EC9E88" stroke="#EC9E88" points="391.536,2720.36 376.537,2740.09 325.54,2747.359 "/>
<polygon fill="#8C3E3A" stroke="#8C3E3A" points="325.54,2747.359 293.607,2755.875 336.039,2755.875 376.537,2740.09 "/>
<polygon fill="#252855" stroke="#252855" points="862.513,2747.359 744.507,2404.82 541.276,2634.865 "/>
<polygon fill="#19152E" stroke="#19152E" points="862.513,2747.359 829.007,2404.82 744.507,2404.82 "/>
<polygon fill="#211B39" stroke="#211B39" points="862.513,2747.359 934.772,2650.613 829.007,2404.82 "/>
<polygon fill="#141225" stroke="#141225" points="934.772,2650.613 1132.499,2755.875 829.007,2404.82 "/>
<polygon fill="#273370" stroke="#273370" points="1132.499,2755.875 1099.642,2289.885 829.007,2404.82 "/>
<polygon fill="#1D1B2C" stroke="#1D1B2C" points="1132.499,2755.875 1207.495,2430.876 1099.642,2289.885 "/>
<polygon fill="#13112C" stroke="#13112C" points="1132.499,2755.875 1275.743,2576.369 1207.495,2430.876 "/>
<polygon fill="#12101B" stroke="#12101B" points="1275.743,2576.369 1385.987,2543.37 1207.495,2430.876 "/>
<polygon fill="#0D0E20" stroke="#0D0E20" points="1275.743,2576.369 1196.995,2834.357 1132.499,2755.875 "/>
<polygon fill="#13131E" stroke="#13131E" points="934.772,2650.613 1000.499,2711.36 1132.499,2755.875 "/>
<polygon fill="#100F1A" stroke="#100F1A" points="1000.499,2711.36 1196.995,2834.357 1132.499,2755.875 "/>
<polygon fill="#110B11" stroke="#110B11" points="1196.995,2834.357 1107.001,2834.357 1062.854,2750.392 "/>
<polygon fill="#0A080D" stroke="#0A080D" points="1107.001,2834.357 1075.791,2957.354 945.001,2948.355 "/>
<polygon fill="#070609" stroke="#070609" points="1062.854,2750.392 945.001,2948.355 1107.001,2834.357 "/>
<polygon fill="#0A0609" stroke="#0A0609" points="862.513,2747.359 945.001,2948.355 934.772,2650.613 "/>
<polygon fill="#080606" stroke="#080606" points="934.772,2650.613 1000.499,2711.36 945.001,2948.355 "/>
<polygon fill="#0A080D" stroke="#0A080D" points="1000.499,2711.36 1062.854,2750.392 945.001,2948.355 "/>
<polygon fill="#1A2638" stroke="#1A2638" points="477.349,2732.002 367.538,2970.853 863.944,2747.023 "/>
<polygon fill="#101521" stroke="#101521" points="862.513,2747.359 677.44,3059.756 367.538,2970.853 "/>
<polygon fill="#131A2B" stroke="#131A2B" points="367.538,2970.853 345.3,3059.756 677.44,3059.756 "/>
<polygon fill="#080709" stroke="#080709" points="945.001,2948.355 677.44,3059.756 862.513,2747.359 "/>
<polygon fill="#10101A" stroke="#10101A" points="945.001,2948.355 903.757,3059.756 677.44,3059.756 "/>
<polygon fill="#997466" stroke="#997466" points="592.993,945.336 574.229,948.816 591.921,952.745 "/>
<polygon fill="#E36060" stroke="#E36060" points="908.493,868.833 891.375,830.955 924.603,789.165 "/>
<polygon fill="#D5988D" stroke="#D5988D" points="895.993,773.464 920.993,778.336 895.993,778.336 854.993,828.961 869.993,793.713 "/>
<polygon fill="#F7AAA1" stroke="#F7AAA1" points="875.493,803.648 924.603,789.165 895.993,778.336 "/>
<polygon fill="#D5988D" stroke="#D5988D" points="895.993,778.336 920.993,778.336 924.603,789.165 "/>
<polygon fill="#EF9B90" stroke="#EF9B90" points="920.993,778.336 939.993,803.336 949.87,864.959 "/>
<line fill="#D5988D" stroke="#D5988D" x1="874.989" y1="804.271" x2="891.993" y2="831.961"/>
<polygon fill="#D99B96" stroke="#D99B96" points="663.772,969.954 691.107,979.669 680.148,1017.952 "/>
<polygon fill="#3A1513" stroke="#3A1513" points="744.507,1198.336 759.993,1208.336 779.991,1208.336 "/>
<polygon fill="#3C1B12" stroke="#3C1B12" points="908.493,1128.945 887.9,1123.172 896.495,1097.399 933.993,1082.448 "/>
<polygon fill="#3C1B12" stroke="#3C1B12" points="903.429,1208.336 928.891,1113.946 908.493,1128.945 "/>
<polygon fill="#352959" stroke="#352959" points="547.528,2194.64 571.527,2138.156 622.64,2195.754 "/>
<polygon fill="#515155" stroke="#515155" points="427.534,2355.879 524.28,2237.482 477.032,2385.878 "/>
<polygon fill="#7E352E" stroke="#7E352E" points="243.044,2642.364 235.544,2691.112 258.043,2765.358 "/>
<polygon fill="#8C4738" stroke="#8C4738" points="315.04,2635.491 315.04,2711.36 336.039,2679.862 "/>
<polygon fill="#DEB2BD" stroke="#DEB2BD" points="293.607,2755.875 336.039,2755.875 314.823,2793.861 "/>
<polygon fill="#B0C2E4" stroke="#B0C2E4" points="903.429,1208.336 922.932,1166 1044.004,1028.45 "/>
<polygon fill="#1F1B40" stroke="#1F1B40" points="1044.004,1890.156 1203.222,1652.887 1219.714,1704.496 "/>
<polygon fill="#BC827F" stroke="#BC827F" points="616.525,2061.896 607.66,2033.002 616.525,2028.897 "/>
<polygon fill="#BC827F" stroke="#BC827F" points="616.525,2028.897 612.093,2007.899 616.525,2000.399 "/>
<polygon fill="#D2A5A8" stroke="#D2A5A8" points="616.525,1965.669 612.381,1987.413 616.525,2000.399 680.789,1988.32 717.021,1938.903
	677.44,1938.903 616.525,1963.158 "/>
<polygon fill="#421E16" stroke="#421E16" points="866.257,1369.282 895.993,1299.937 903.429,1208.336 "/>
<polygon fill="#743962" stroke="#743962" points="925.212,1326.185 866.257,1369.282 866.257,1483.464 "/>
<polyline fill="#5D2D4C" stroke="#5D2D4C" points="866.257,1369.282 866.257,1483.464 788.484,1690.945 827.354,1467.94 842.081,1394.468 "/>
<polyline fill="#6280BF" stroke="#6280BF" points="718.813,2318.383 667.421,2302.758 753.397,2194.341 "/>
<polygon fill="#241F59" stroke="#241F59" points="773.05,2112.894 731.55,2112.894 785.521,2163.42 "/>
<polygon fill="#241F59" stroke="#241F59" points="910.302,2078.396 884.19,2138.392 1026.005,2126.394 "/>
<line fill="#100F1A" stroke="#100F1A" x1="1196.995" y1="2834.357" x2="1000.499" y2="2711.36"/>
<line fill="#100F1A" stroke="#100F1A" x1="1062.003" y1="1175.336" x2="954.347" y2="1507.881"/>
<polygon fill="none" points="640.524,929.454 646.523,897.958 665.194,897.336 "/>
<polygon fill="#FBCFB8" stroke="#FBCFB8" points="665.048,878.459 713.841,889.505 729.02,881.052 "/>
<polygon fill="#997466" stroke="#997466" points="640.524,929.454 634.698,897.958 663.208,872.46 738.993,872.46 729.02,881.052 665.048,878.459
	646.523,897.958 "/>
<polygon fill="#997466" stroke="#997466" points="573.429,948.156 593.201,944.972 610.491,949.162 591.921,952.745 584.28,963.955 "/>
<polygon fill="#692E29" stroke="#692E29" points="610.491,949.162 584.28,963.955 591.921,952.745 "/>
<polyline fill="#35180F" stroke="#35180F" points="587.897,978.296 586.585,975.884 584.28,963.955 591.761,959.733 "/>
<polygon fill="#35180F" stroke="#35180F" points="610.493,970.954 610.493,984.136 602.915,992.417 592.491,987.64 586.61,975.696 "/>
<polygon fill="#1F0D0B" stroke="#1F0D0B" points="610.525,960.576 590.585,965.037 587.897,978.296 592.491,987.64 610.493,970.954 "/>
<polygon fill="#3C140F" stroke="#3C140F" points="610.491,949.162 591.761,959.733 610.525,960.576 "/>
<polygon fill="#35180F" stroke="#35180F" points="610.493,983.829 604.492,993.953 603.127,991.917 "/>
<polygon fill="#C58B81" stroke="#C58B81" points="610.66,751.521 594.896,923.162 597.026,929.454 "/>
<polygon fill="#AA6156" stroke="#AA6156" points="566.41,937.154 573.429,948.156 593.201,944.972 610.491,949.162 608.975,946.973 "/>
<path fill="#EBAAA6" stroke="#EBAAA6" d="M664.313,969.733"/>
<line fill="#EBAAA6" stroke="#EBAAA6" x1="610.491" y1="949.162" x2="609.263" y2="947.39"/>
<path fill="none" stroke="#C92827" stroke-miterlimit="10" d="M663.772,969.733"/>
<path fill="none" stroke="#C92827" stroke-miterlimit="10" d="M611.571,948.711"/>
<polygon fill="#D99B96" stroke="#D99B96" points="663.772,969.954 763.271,929.454 597.026,929.454 "/>
<polygon fill="#E7A889" stroke="#E7A889" points="610.491,949.162 663.772,969.954 597.026,929.454 "/>
<polygon fill="#EBAAA6" stroke="#EBAAA6" points="610.491,949.162 610.525,1002.952 663.772,969.954 "/>
<polygon fill="#692E29" stroke="#692E29" points="713.841,889.505 697.106,923.162 675.772,937.154 640.524,929.454 669.29,926.308 "/>
<polygon fill="#FBCFB8" stroke="#FBCFB8" points="713.841,889.505 697.106,923.162 708.995,923.162 "/>
<polygon fill="#AC474A" stroke="#AC474A" points="660.337,1091.003 664.313,1084.863 725.521,1065.949 660.337,1082.448 "/>
<polygon fill="#FBCFB8" stroke="#FBCFB8" points="727.14,882.099 665.048,878.459 646.523,897.958 665.194,881.052 "/>
<polygon fill="#C58B81" stroke="#C58B81" points="591.761,959.733 585.706,971.336 584.28,963.955 "/>
<polygon fill="#C87074" stroke="#C87074" points="691.107,1122.946 680.148,1116.722 680.148,1100.448 "/>
<polygon fill="#C87074" stroke="#C87074" points="680.148,1116.722 674.993,1106.125 680.148,1100.448 "/>
<polygon fill="#AC474A" stroke="#AC474A" points="725.521,1065.949 665.194,1073.449 660.337,1082.448 "/>
<polygon fill="#741113" stroke="#741113" points="664.313,1084.863 660.337,1091.003 674.993,1106.125 680.148,1100.448 "/>
<polygon fill="#BD9188" stroke="#BD9188" points="725.521,1065.949 663.772,1070.155 655.858,1084.863 652.226,1078.476 663.772,1065.949 "/>
<polygon fill="#BD9188" stroke="#BD9188" points="725.521,1065.949 663.772,1070.155 659.295,1078.476 660.337,1082.448 663.772,1074.199 "/>
<path fill="#BD9188" stroke="#BD9188" d="M655.858,1084.863"/>
<polygon fill="#BD9188" stroke="#BD9188" points="657.278,1088.254 655.858,1084.863 659.295,1078.476 663.772,1074.199 664.869,1074.052 "/>
<polygon fill="#AC474A" stroke="#AC474A" points="660.337,1082.448 657.278,1088.254 660.337,1091.003 "/>
<polygon fill="#6F514D" stroke="#6F514D" points="687.733,1938.903 778.773,1426.68 773.05,1421.431 677.44,1938.903 "/>
<polygon fill="#FCDFD6" stroke="#FCDFD6" points="828.813,1273.779 812.217,1273.779 812.217,1283.779 826.78,1287.094 "/>
<polygon fill="#FCDFD6" stroke="#FCDFD6" points="882.297,1273.542 864.887,1273.542 864.887,1288.876 879.45,1292.19 "/>
<polygon fill="#FCDFD6" stroke="#FCDFD6" points="819.288,1319.527 802.692,1319.527 802.692,1329.527 817.257,1332.842 "/>
<polygon fill="#1F0D0B" stroke="#1F0D0B" points="640.524,929.454 665.194,897.336 713.841,889.505 663.772,894.336 660.324,897.336 "/>
<polygon fill="#FBCFB8" stroke="#FBCFB8" points="591.761,959.733 610.502,952.641 610.525,960.576 "/>
<path fill="none" d="M317.493,888.208"/>
<polyline fill="#FBCFB8" stroke="#FBCFB8" points="646.523,897.958 665.048,878.459 713.841,889.505 663.772,894.336 660.324,897.336
	640.524,929.454 "/>
<polygon fill="#FBCFB8" stroke="#FBCFB8" points="640.524,929.454 646.523,897.958 665.194,881.052 713.841,889.505 663.772,894.336 655.858,899.873
	"/>
<polygon fill="#FBCFB8" stroke="#FBCFB8" points="604.302,960.296 588.642,965.709 591.761,959.733 "/>
<polygon fill="#7B5341" stroke="#7B5341" points="1079.896,1957.92 1288.87,1926.904 1306.367,1879.327 "/>
<polygon fill="#341813" stroke="#341813" points="910.302,2078.396 1288.87,2019.899 1288.87,1926.904 "/>
<polygon fill="#936855" stroke="#936855" points="910.302,2078.396 1079.896,1957.92 1288.87,1926.904 "/>
<polygon fill="#A57065" stroke="#A57065" points="900.353,971.336 902.683,923.162 881.884,948.816 "/>
<polygon fill="#E2BEAF" stroke="#E2BEAF" points="949.87,914.329 973.67,964.708 1002.993,972.227 "/>
<polygon fill="#E2BEAF" stroke="#E2BEAF" points="900.353,971.336 1044.004,1028.45 1002.993,972.227 973.67,964.708 902.683,923.162 "/>
<polygon fill="#6D473A" stroke="#6D473A" points="1002.993,971.336 992.993,823.336 949.87,914.329 "/>
<polygon fill="#F2CAB5" stroke="#F2CAB5" points="902.683,923.162 973.67,964.708 949.87,914.329 949.87,864.959 "/>
<polygon fill="#EAAFA5" stroke="#EAAFA5" points="708.995,923.162 697.106,923.162 687.513,929.454 "/>
<polygon fill="#E7A889" stroke="#E7A889" points="477.032,2385.878 391.536,2603.366 306.041,2543.37 "/>
<polygon fill="#312549" stroke="#312549" points="1219.714,1704.496 1233.749,1748.413 1190.997,1818.159 1044.004,1890.156 "/>
<polygon fill="#856E6A" stroke="#856E6A" points="916.444,619.714 946.993,666.336 982.993,713.842 "/>
</svg>
